<?xml version="1.0" encoding="UTF-8"?>
<svg width="28px" height="23px" viewBox="0 0 28 23" version="1.1" xmlns="http://www.w3.org/2000/svg" xmlns:xlink="http://www.w3.org/1999/xlink">
    <!-- Generator: Sketch 52.1 (67048) - http://www.bohemiancoding.com/sketch -->
    <title>8800</title>
    <desc>Created with Sketch.</desc>
    <defs>
        <linearGradient x1="0.25781251%" y1="49.7500002%" x2="28.3939059%" y2="-15.7690977%" id="linearGradient-1">
            <stop stop-color="#3023AE" offset="0%"></stop>
            <stop stop-color="#53A0FD" offset="47.5247532%"></stop>
            <stop stop-color="#B4EC51" offset="100%"></stop>
        </linearGradient>
    </defs>
    <g id="Page-1" stroke="none" stroke-width="1" fill="none" fill-rule="evenodd">
        <g id="Artboard" transform="translate(-697.000000, -41.000000)" fill="url(#linearGradient-1)">
            <g id="8800" transform="translate(697.000000, 41.000000)">
                <path d="M28,2.72126191 C26.9694428,3.18304873 25.8636697,3.49622726 24.7018508,3.63604489 C25.8881469,2.91766358 26.7962268,1.77821005 27.2266131,0.424634745 C26.1138401,1.08990202 24.8855439,1.57297146 23.5767706,1.83484035 C22.5287362,0.704223737 21.0380082,0 19.3845415,0 C16.2123925,0 13.6403687,2.60096878 13.6403687,5.80705827 C13.6403687,6.2617663 13.6911073,6.70587928 13.7891075,7.13056029 C9.01601473,6.88812337 4.78356991,4.57558049 1.95085286,1.06158686 C1.45568212,1.91798141 1.17398885,2.91585918 1.17398885,3.98105484 C1.17398885,5.99638115 2.1888075,7.77459119 3.7285355,8.81494169 C2.7871941,8.78311028 1.90185278,8.52124139 1.12677308,8.08596533 L1.12677308,8.15851134 C1.12677308,10.9717975 3.10741031,13.3197343 5.73364989,13.8541134 C5.25247917,13.9850478 4.74509272,14.0575939 4.22018337,14.0575939 C3.84927426,14.0575939 3.49058087,14.0204418 3.13888748,13.9496539 C3.87022855,16.2586805 5.990866,17.9377875 8.50341259,17.9838228 C6.53851395,19.5408785 4.06096742,20.4662566 1.36998917,20.4662566 C0.90634135,20.4662566 0.449647794,20.4379414 0,20.3866318 C2.5422852,22.0374699 5.56047967,23 8.80436733,23 C19.370633,23 25.1463287,14.1496181 25.1463287,6.47412994 L25.1270672,5.72215908 C26.2555788,4.908191 27.2318746,3.88551433 28,2.72126191 Z" id="Path"></path>
            </g>
        </g>
    </g>
</svg>